<svg xmlns="http://www.w3.org/2000/svg" width="256" height="256"><path fill-opacity=".016" d="M0 128.004v128.004l128.25-.254 128.25-.254.254-127.75L257.008 0H0v128.004m.485.496c0 70.4.119 99.053.265 63.672.146-35.38.146-92.98 0-128C.604 29.153.485 58.1.485 128.5" fill="#1976D2" fill-rule="evenodd"/><path fill-opacity=".123" d="M232.719 1.777c-1.53.947-3.694 3.606-4.808 5.908-2.66 5.494-1.796 10.363 2.622 14.782 4.425 4.425 9.287 5.283 14.804 2.612 5.264-2.548 7.663-6.494 7.663-12.601 0-4.142-.471-5.184-3.882-8.596-3.46-3.459-4.413-3.879-8.75-3.855-2.822.015-6.037.751-7.649 1.75m-14.129 2.85C217.889 6.452 219.585 9 221.5 9s3.611-2.548 2.91-4.373c-.809-2.109-5.011-2.109-5.82 0M118.224 5.738c-2.902.203-5.083.682-4.847 1.065.237.383-1.814.731-4.556.772-2.743.041-5.287.491-5.654 1s-1.454.962-2.417 1.008c-5.057.241-5.831.477-5.155 1.572.432.698.276.883-.395.469-1.608-.994-6.307.394-5.539 1.637.372.602.169.752-.477.352-1.415-.874-15.87 5.073-18.344 7.547-1.012 1.012-1.84 1.603-1.84 1.314 0-1.326-7.319 3.433-15.732 10.231-14.581 11.782-25.265 25.113-33.681 42.028-4.827 9.7-9.053 21.704-8.154 23.158.319.516.059 1.112-.576 1.323-.636.212-1.201 2.458-1.256 4.99-.056 2.532-.4 4.42-.765 4.194-.779-.481-1.704 10.91-1.753 21.602-.048 10.569.947 22.1 1.858 21.536.424-.261.585.523.36 1.744-.619 3.348 4.273 19.057 9.137 29.343 4.205 8.892 10.824 19.634 14.842 24.087 1.353 1.5 2.044 3.786 2.15 7.109.265 8.377 5.22 13.416 13.389 13.616 3.911.096 5.982.997 12.595 5.481 13.964 9.469 39.863 19.974 46.306 18.783 1.221-.225 2.01-.071 1.753.344-.985 1.594 26.031 2.561 37.775 1.352 3.162-.325 5.568-.884 5.346-1.243-.221-.359 1.67-.697 4.202-.753 2.532-.055 4.778-.62 4.99-1.256.211-.635.807-.895 1.323-.576 1.505.93 13.602-3.452 23.891-8.654 11.507-5.819 15.261-8.293 14.258-9.399-.417-.459-.237-.537.4-.172.636.364 3.508-1.251 6.38-3.59 9.08-7.392 8.769-7.237 10.812-5.388 2.198 1.99 6.112 2.115 8.626.278 2.628-1.922 2.462-7.464-.289-9.692-1.931-1.563-1.988-1.87-.569-3.048 5.92-4.913 22.49-35.3 20.769-38.086-.4-.646-.25-.849.352-.477 1.243.768 2.631-3.931 1.637-5.539-.414-.671-.229-.827.469-.395 1.095.676 1.331-.098 1.572-5.155.046-.963.448-2.018.893-2.346.446-.328.896-2.912 1-5.742.105-2.831.481-5.15.836-5.154.355-.004.968-3.649 1.362-8.099.747-8.435-.211-27.21-1.351-26.507-.362.223-.692-1.888-.734-4.691-.043-2.803-.557-5.256-1.144-5.451-.587-.196-.865-1.128-.618-2.072.658-2.516-5.15-18.363-10.406-28.392-2.509-4.788-7.432-12.529-10.94-17.204-6.94-9.247-28.502-29.918-32.397-31.058-1.33-.39-5.793-2.425-9.918-4.522-9.385-4.772-24.894-10.273-27.237-9.66-.971.254-1.545.104-1.275-.333.676-1.093-7.708-2.256-9.978-1.384-1.152.442-1.601.322-1.204-.321 1.117-1.808-14.801-2.642-30.082-1.576M101.25 27.749c16.912.154 44.587.154 61.5 0 16.912-.153 3.075-.279-30.75-.279s-47.663.126-30.75.279m24.5 7.991c3.438.196 9.063.196 12.5 0 3.438-.195.625-.355-6.25-.355s-9.687.16-6.25.355M1.655 53.829C-.59 56.309-.43 60.57 2 63c5.784 5.784 14.178-2.018 9.443-8.777-1.962-2.802-7.41-3.022-9.788-.394m241.87 8.789c-1.837 1.837-1.623 3.287.701 4.753 1.136.716 2.07.628 3.19-.301 2.134-1.772 1.996-3.779-.347-5.033-1.464-.783-2.32-.643-3.544.581M56 84.362c-11.473 2.493-20.295 8.576-24.41 16.833-5.505 11.047-1.966 21.942 9.674 29.787 6.699 4.515 13.219 6.565 23.84 7.495 6.4.561 8.337 1.188 12.239 3.962 4.311 3.064 13.134 6.417 14.169 5.383.249-.25.011-1.997-.529-3.882-2.083-7.262-1.388-9.771 4.067-14.675 6.656-5.984 9.341-11.235 9.341-18.265 0-18.594-24.171-31.899-48.391-26.638m8 6.404c-3.452.573-8.685 4.725-10.585 8.398-.983 1.901-1.456 4.826-1.249 7.721.292 4.079-.135 5.3-3.416 9.772-2.062 2.811-3.75 5.362-3.75 5.669 0 .308 1.875.697 4.166.867 3.754.277 4.281.648 5.319 3.747.634 1.891 1.572 3.566 2.084 3.722.512.155 2.449-1.955 4.305-4.69 4.498-6.628 6.75-6.615 11.658.072 2.037 2.774 4.192 4.881 4.79 4.682.597-.199 1.457-1.794 1.911-3.544.744-2.874 1.192-3.182 4.629-3.182 2.093 0 4.081-.276 4.418-.613.337-.338-1.117-2.925-3.232-5.75-3.559-4.755-3.807-5.515-3.335-10.221C82.743 97.138 74.17 89.08 64 90.766m80.75 32.94c1.238.238 3.262.238 4.5 0 1.238-.239.225-.434-2.25-.434s-3.488.195-2.25.434m73.473 59.851c-2.923 2.047-3.103 7.902-.289 9.408 2.638 1.412 6.607 1.303 7.821-.215 2.439-3.049 2.392-5.694-.147-8.233-2.923-2.923-4.324-3.105-7.385-.96M37.389 190.43c-.996 2.595.399 4.739 2.857 4.39 1.652-.235 2.254-.987 2.254-2.82 0-1.833-.602-2.585-2.254-2.82-1.353-.192-2.496.308-2.857 1.25M51 242.793c-2.923.912-5 3.554-5 6.362 0 3.237 3.092 6.845 5.865 6.845 2.809 0 7.135-3.85 7.135-6.35 0-4.393-4.242-8.029-8-6.857" fill="#1976D2" fill-rule="evenodd"/><path fill-opacity=".314" d="M63.871 25.006c-4.677 2.471-8.523 7.08-9.827 11.775-.568 2.045-1.035 12.797-1.038 23.891L53 80.845l-3.75 1.199c-8.956 2.863-18.136 10.614-21.858 18.456-6.74 14.202 1.364 30.383 19.082 38.102L53 141.445v38.066c0 37.504.033 38.13 2.25 42.469 1.237 2.422 3.979 5.78 6.093 7.462l3.843 3.058h133.628l3.843-3.106c2.114-1.708 4.743-4.633 5.843-6.5 1.945-3.301 2.008-5.457 2.28-78.436l.28-75.042 2.97-1.121 2.97-1.121V46.826l-2.914-1.1c-2.45-.925-3.024-1.825-3.597-5.65-1.183-7.885-4.755-12.618-11.721-15.528-3.216-1.344-12.11-1.542-67.486-1.504-60.893.042-63.946.131-67.411 1.962m.321 4.018c-6.221 3.793-7.145 7.767-7.17 30.833-.02 18.158.149 20.291 1.56 19.75.87-.334 3.12-.607 5-.607H67V48h59c51.778 0 59 .184 59 1.5s-7.056 1.5-57.5 1.5H70v27.647l6.25 1.156C94.544 83.186 109 96.956 109 111c0 6.748-3.094 13.254-9.213 19.373l-6.036 6.036 1.101 4.546c.605 2.5 1.371 5.49 1.702 6.646.959 3.35-2.012 5.582-6.402 4.811-4.543-.797-11.547-3.766-16.152-6.846-2.39-1.599-5.641-2.544-10.25-2.981l-6.75-.641.022 37.278c.02 34.597.16 37.582 1.942 41.507 1.108 2.442 3.318 5.082 5.228 6.247 3.227 1.967 4.888 2.017 67.808 2.017 62.212 0 64.614-.07 67.701-1.953 1.761-1.073 4.011-3.434 5-5.246 1.694-3.102 1.799-8.561 1.799-93.794s-.105-90.692-1.799-93.794c-.989-1.812-3.239-4.173-5-5.246-3.087-1.883-5.489-1.953-67.701-1.953-62.92 0-64.581.05-67.808 2.017m54.998 8.726c.3 1.555 1.726 1.75 12.81 1.75s12.51-.195 12.81-1.75c.307-1.595-.828-1.75-12.81-1.75-11.982 0-13.117.155-12.81 1.75m75.01 15.762c.165 3.031.75 5.511 1.3 5.511s1.135-2.48 1.3-5.511c.245-4.511.009-5.512-1.3-5.512s-1.545 1.001-1.3 5.512M211 56.5c0 6.889.284 8.5 1.5 8.5s1.5-1.611 1.5-8.5-.284-8.5-1.5-8.5-1.5 1.611-1.5 8.5M2.986 53.81c-2.479 2.007-2.967 6.303-.989 8.687 1.492 1.797 7.115 1.991 8.803.303 2.058-2.058 1.456-7.508-1.023-9.243-2.863-2.006-4.056-1.961-6.791.253M139.5 64.399c-9.624 3.044-16.637 9.507-19.757 18.21C117.6 88.59 117.433 94 119.393 94c2.093 0 2.789 2.902 1.23 5.128-1.173 1.675-1.156 2.733.12 7.169.823 2.861 2.117 5.913 2.877 6.782.759.868 1.38 3.021 1.38 4.785 0 4.133 1.889 6.932 7.532 11.16 3.603 2.7 4.497 3.945 4.263 5.944-.262 2.245-1.474 2.944-10.795 6.223-14.953 5.261-17.362 8.853-16.79 25.037l.29 8.214 5.5 2.764c8.528 4.287 16.393 5.989 30.18 6.529 9.576.375 14.481.096 20.043-1.141 7.819-1.74 18.996-6.522 20.346-8.705 1.242-2.011.424-19.97-1.074-23.555-1.71-4.093-3.874-5.385-15.862-9.471-13.005-4.433-13.34-5.33-4.978-13.33 5.837-5.585 6.345-6.409 6.345-10.302 0-2.327.433-4.231.961-4.231.529 0 1.611-2.186 2.404-4.858 2.024-6.813.72-23.269-2.344-29.598-1.21-2.499-2.609-4.544-3.11-4.544-.501 0-2.687-1.776-4.858-3.947-2.171-2.171-5.298-4.646-6.95-5.5-3.568-1.845-11.038-1.914-16.603-.154m54.692-.324c.197.591.786 1.075 1.308 1.075s1.111-.484 1.308-1.075c.197-.591-.391-1.075-1.308-1.075s-1.505.484-1.308 1.075m.475 10.592c-.367.366-.667 27.141-.667 59.5V193H70v-13c0-10.889-.244-13-1.5-13-1.264 0-1.5 2.278-1.5 14.5V196h130v-61c0-33.55-.375-61-.833-61-.459 0-1.134.3-1.5.667m-40.615 11.418c-2.986 3.716-8.435 7.902-10.298 7.911-.41.002.106-2.237 1.146-4.976l1.892-4.979-2.146 1.096c-1.18.603-4.083 2.957-6.451 5.23l-4.304 4.133 4.579.5c6.264.684 5.293 2.573-1.131 2.202-6.189-.358-7.949 1.285-2.338 2.182 3.106.497 4.098 1.162 4.576 3.068.756 3.01-.116 4.548-2.577 4.548-2.202 0-3.555-1.648-1.826-2.225 2.165-.721.001-3.939-2.42-3.595-1.636.232-2.343 1.099-2.579 3.158-.398 3.475 1.973 6.316 6.011 7.203 5.234 1.149 10.169-5.786 6.632-9.323-.906-.906-.449-.905 1.96.004 2.609.985 3.747.898 6.703-.511 1.958-.934 6.026-1.988 9.04-2.342 3.784-.445 5.479-1.087 5.479-2.074 0-.88-.673-1.243-1.75-.944-.963.267-4.338.779-7.5 1.139-4.839.55-5.75.405-5.75-.918 0-1.28 1.302-1.572 7-1.572 3.85 0 7-.352 7-.781 0-.787-6.933-12.219-7.41-12.219-.14 0-1.732 1.838-3.538 4.085M52.798 84.868c-11.036 3.65-19.237 10.151-22.423 17.777-2.047 4.899-1.727 12.997.713 18.037C36.125 131.087 51.616 139 66.949 139c3.86 0 5.883.695 9.913 3.407 4.737 3.188 14.776 7.288 15.666 6.398.219-.219-.26-2.586-1.065-5.261-2.318-7.703-1.901-9.637 2.817-13.063 2.287-1.661 5.522-5.228 7.189-7.926 2.572-4.164 3.03-5.903 3.027-11.481-.004-5.377-.51-7.434-2.778-11.299-3.37-5.743-9.985-10.965-17.565-13.87-8.103-3.105-23.558-3.616-31.355-1.037m6.027 8.605c-4.438 3.016-7.375 9.784-6.43 14.821.535 2.852.086 4.098-2.88 7.983-1.933 2.532-3.515 5.08-3.515 5.663 0 .583 1.8 1.06 4 1.06 2.509 0 4.017.466 4.045 1.25.025.688.611 2.576 1.302 4.197l1.258 2.947 3.947-5.685c5.009-7.214 6.816-7.323 11.754-.709 2.053 2.75 4.13 5 4.616 5 .485 0 1.353-1.35 1.928-3 .93-2.668 1.495-3 5.098-3 2.229 0 4.052-.477 4.052-1.06 0-.583-1.74-3.341-3.866-6.13-3.548-4.652-3.783-5.344-2.847-8.394.8-2.606.643-4.31-.727-7.897C78.268 94.517 73.258 91 67 91c-3.177 0-5.626.741-8.175 2.473m2.431 1.556c-5.295 2.129-7.794 11.095-4.739 17.004 4.045 7.823 16.921 7.823 20.966 0 5.525-10.683-4.866-21.572-16.227-17.004M66 101.883c0 .486-.9 1.119-2 1.407-2.029.53-2.834 2.71-1 2.71.55 0 1 .825 1 1.833 0 1.371.758 1.834 3 1.834 2.109 0 3-.486 3-1.634 0-.898.555-2.188 1.233-2.866.977-.977.769-1.354-1-1.816-1.228-.322-2.233-.982-2.233-1.468 0-.485-.45-.883-1-.883s-1 .398-1 .883M123.509 104c1.094 5.317 2.736 7.347 2.093 2.586-.291-2.152-1.043-4.402-1.671-5-.851-.809-.958-.194-.422 2.414m37.041-1.729c.75 1.954-2.126 4.117-4.287 3.224-1.193-.492-1.359-.879-.513-1.195.688-.257 1.25-.879 1.25-1.383 0-1.479-3.722-1.052-5.391.617-3.601 3.601 3.267 9.604 8.646 7.559 4.996-1.899 6.484-9.275 2-9.912-1.595-.226-2.089.089-1.705 1.09m9.091 1.939c-.338 1.26-.575 3.19-.527 4.29.048 1.1.499.245 1.002-1.901.975-4.155.558-6.248-.475-2.389m-25.447 4.815c-4.272 5.136-8.826 5.497-13.271 1.052L128 107.154v6.845c0 6.811.021 6.863 4.25 10.512 5.04 4.349 12.796 8.489 15.901 8.489 3.761 0 10.488-3.885 14.768-8.527 3.847-4.174 4.081-4.779 4.081-10.54v-6.111l-3.077 2.589c-4.735 3.985-8.962 3.537-13.09-1.386l-3.333-3.975-3.306 3.975m2.619 9.658c.721.289 1.584.253 1.916-.079.332-.332-.258-.568-1.312-.525-1.165.048-1.402.285-.604.604M140 122.927c0 2.297 4.477 6.073 7.201 6.073 4.028 0 7.755-2.993 7.784-6.25.013-1.512-1.003-1.75-7.485-1.75-6.739 0-7.5.196-7.5 1.927m4.75.779c1.238.238 3.262.238 4.5 0 1.238-.239.225-.434-2.25-.434s-3.488.195-2.25.434M140 135.473c0 3.241-1.987 4.983-7.419 6.504-2.519.706-4.581 1.576-4.581 1.934 0 .359 2.676 3.3 5.947 6.537 5.075 5.022 6.175 5.696 7.5 4.596 1.87-1.552 1.76-2.52 1.561 13.706l-.151 12.25h8.426l-.689-11.793c-.754-12.89-.288-16.028 2.087-14.057 1.187.985 2.549.1 7.563-4.914 6.841-6.841 7.052-5.888-2.048-9.288-2.354-.88-3.462-2.028-3.855-3.992-.503-2.515-.808-2.682-3.486-1.914-1.952.559-4.261.373-6.895-.556-3.897-1.375-3.96-1.359-3.96.987m-21.697 11.781c-3.385 1.548-5.491 7.216-6.058 16.305l-.515 8.25 3.228 1.669c1.775.918 3.524 1.374 3.885 1.013.478-.477 2.109-27.238 1.714-28.117-.032-.069-1.046.327-2.254.88m53.295 13.788c.634 8.273 1.407 15.296 1.718 15.607.311.312 2.505-.51 4.875-1.824l4.309-2.391-.322-9.467c-.178-5.207-.559-10.296-.847-11.309-.474-1.665-7.325-5.582-9.858-5.636-.697-.015-.657 4.812.125 15.02M67 159.417c0 3.482.374 4.583 1.557 4.583 1.211 0 1.489-.93 1.25-4.172-.439-5.967-2.807-6.313-2.807-.411m58.923 45.506c-3.625 3.625-3.727 6.968-.334 11 1.936 2.301 3.428 3.077 5.918 3.077 4.706 0 6.358-.838 8.03-4.072 2.088-4.037 1.824-6.345-1.126-9.851-3.529-4.194-8.388-4.254-12.488-.154m2.277 2.277c-.66.66-1.2 2.37-1.2 3.8 0 3.355 1.703 5 5.177 5 3.798 0 6.26-3.72 4.874-7.365-.805-2.117-1.655-2.635-4.326-2.635-1.829 0-3.865.54-4.525 1.2m-79.563 37.306C44.541 248.602 46.561 255 51.952 255c3.661 0 6.048-2.334 6.048-5.916 0-5.055-5.968-7.973-9.363-4.578" fill="#1976D2" fill-rule="evenodd"/><path fill-opacity=".695" d="M67.843 23.96c-4.596 1.414-8.349 4.105-10.889 7.808-2.387 3.481-2.468 4.201-2.954 26.508l-.5 22.929-4.5 1.502c-11.408 3.809-20.761 13.397-23.051 23.63-2.857 12.765 5.982 25.795 21.877 32.254l5.674 2.305.5 39.802c.488 38.834.554 39.888 2.701 43.34 1.21 1.946 4.135 4.646 6.5 6L67.5 232.5h129l4.654-2.736c3.232-1.9 5.294-4.059 6.75-7.066 2.071-4.278 2.096-5.225 2.096-79.514V68h2.3c3.918 0 4.7-1.829 4.7-11 0-9.102-.789-11-4.576-11-1.913 0-2.231-.658-2.627-5.436-.548-6.607-3.642-11.528-9.28-14.761L196.5 23.5l-63-.179c-34.65-.098-64.196.189-65.657.639m-2.83 4.315C57.521 32.237 57 34.216 57 58.734V80h9.949l.276-15.75.275-15.75 57.5-.26c31.625-.142 58.175.083 59 .5.825.418-24.6.985-56.5 1.26l-58 .5-.278 14.271c-.212 10.918.023 14.353 1 14.623.703.194 4.175.895 7.715 1.557 28.526 5.338 39.552 32.837 20.157 50.274l-5.21 4.685 1.651 6.582c.908 3.62 1.398 7.24 1.089 8.045-1.268 3.306-13.63.139-21.384-5.478-3.231-2.34-5.208-2.94-10.607-3.218l-6.637-.341.002 38.516c.002 43.827-.063 43.437 8.015 47.709L69.315 230h62.527c60.665 0 62.648-.06 66.592-2.015 2.236-1.108 4.966-3.245 6.066-4.75 1.966-2.688 2-4.313 2-95.235s-.034-92.547-2-95.235c-1.1-1.505-3.83-3.642-6.066-4.75C194.49 26.06 192.507 26 131.842 26H69.315l-4.302 2.275M119 38c0 .615 5 1 13 1s13-.385 13-1-5-1-13-1-13 .385-13 1m76 15.441c0 3.057.45 5.559 1 5.559s1-2.223 1-4.941-.45-5.219-1-5.559c-.621-.384-1 1.49-1 4.941m15 3.629c0 8.833.059 9.061 2.25 8.75 2.111-.3 2.268-.859 2.539-9.07l.289-8.75h-2.539c-2.532 0-2.539.025-2.539 9.07m-68.976 7.533c-11.696 3.143-18.26 9.57-21.651 21.2-1.692 5.805-1.306 8.492 1.089 7.573 1.167-.447 1.538.112 1.538 2.317 0 1.599-.473 3.38-1.052 3.959-1.227 1.227.576 9.922 2.561 12.348.676.825 1.484 3.524 1.797 5.997.577 4.552 4.056 8.824 10.684 13.12 2.177 1.411 2.366 1.968 1.5 4.428-.859 2.442-2.249 3.235-10.49 5.991-5.225 1.747-10.267 3.507-11.204 3.91-3.173 1.364-5.755 8.672-6.431 18.198l-.641 9.023 2.888 2.052c7.892 5.607 21.729 8.769 37.888 8.658 13.707-.094 21.793-1.841 30.889-6.674l5.888-3.129-.564-10.693c-.859-16.284-.443-15.819-20.213-22.626-6.931-2.387-8.034-3.089-8.257-5.255-.197-1.911.685-3.192 3.743-5.437 5.064-3.717 9.014-9.371 9.014-12.902 0-1.502.787-3.936 1.75-5.409 1.46-2.233 1.703-4.591 1.468-14.215-.344-14.1-1.443-18.504-5.549-22.224a233.057 233.057 0 01-6.212-5.889c-3.087-3.061-9.312-5.854-12.957-5.814-1.1.012-4.464.684-7.476 1.493m53.734 69.647l-.258 59.25h-125L69 180c-.278-7.484-.849-12.808-1.282-11.947-.429.854-.654 7.379-.499 14.5L67.5 195.5h129l.258-60.25c.17-39.667-.084-60.25-.742-60.25-.653 0-1.09 20.594-1.258 59.25m-39.229-51.342C154.854 85.034 146.596 93 145.067 93c-.559 0-.35-1.781.488-4.156.807-2.286 1.275-4.347 1.041-4.581C145.524 83.19 134 92.101 134 94.003c0 .423 2.025 1.074 4.5 1.445s4.5 1.097 4.5 1.613c0 1.185-.161 1.179-5.706-.217-4.079-1.027-4.74-.954-5.916.653-1.271 1.739-1.352 1.735-2.054-.094-.663-1.723-.798-1.667-1.428.597-.383 1.375-.735 3.4-.781 4.5-.071 1.683.085 1.762.987.5.823-1.152.9-.92.335 1-.406 1.375-.933 5.583-1.173 9.35l-.436 6.85 4.506 4.196c2.478 2.307 7.038 5.477 10.134 7.044 5.035 2.547 6.02 2.73 9.34 1.736 5.002-1.499 11.285-6.26 14.629-11.085 2.418-3.489 2.693-4.661 2.296-9.778-.249-3.197-.779-6.938-1.179-8.313-.559-1.922-.48-2.153.344-1 1.814 2.54 1.361-1.297-.836-7.08-1.953-5.14-7.978-14.846-9.245-14.894-.375-.014-.955.832-1.288 1.882M58 83.142c-12.763 2.109-25.186 11.087-28.403 20.529-3.212 9.424-1.458 15.539 6.859 23.917 7.501 7.555 14.254 10.389 26.544 11.14 6.696.409 9.137.993 11.5 2.751 4.541 3.379 10.65 6.271 14.95 7.078 3.717.697 3.831.636 3.167-1.667-.38-1.314-.959-4.73-1.288-7.59l-.599-5.201 5.527-5.051c6.206-5.672 8.952-11.208 8.952-18.048 0-13.493-12.845-25.051-31.209-28.081-6.361-1.049-8.473-1.02-16 .223m3.02 9.556c-5.412 2.803-8.232 7.775-7.843 13.827.288 4.484-.081 5.576-3.427 10.134-2.063 2.81-3.75 5.36-3.75 5.667 0 .308 1.875.697 4.166.867 3.765.277 4.279.643 5.334 3.791l1.167 3.483 3.761-5.233c4.976-6.926 7.237-6.97 12.266-.234 2.053 2.75 4.022 5 4.375 5 .353 0 1.059-1.463 1.569-3.25.819-2.873 1.413-3.308 5.118-3.75l4.192-.5-3.85-5c-3.605-4.682-3.822-5.349-3.411-10.5.345-4.317.006-6.187-1.576-8.696-4.092-6.488-11.786-8.872-18.091-5.606m.042 2.129c-10.038 5.384-8.447 19.581 2.603 23.227 10.047 3.316 19.72-8.622 14.566-17.977C76.149 96.298 70.916 93 67 93c-1.392 0-4.064.822-5.938 1.827m91.948 1.065c-4.754 1.324-.477 1.766 5.49.569l6-1.205-4.5-.028c-2.475-.016-5.62.283-6.99.664m-30.253 4.684c-.582.582.951 8.143 1.992 9.827.372.603.938-.02 1.285-1.413.921-3.699-1.578-10.113-3.277-8.414m12.773.375c-.356.577-.171 1.049.411 1.049s1.059.675 1.059 1.5-.54 1.5-1.2 1.5c-.881 0-.904.296-.087 1.113 1.437 1.437 3.287.284 3.287-2.05 0-2.305-2.553-4.595-3.47-3.112m29.283-.268c.721.289 1.584.253 1.916-.079.332-.332-.258-.568-1.312-.525-1.165.048-1.402.285-.604.604m-7.488.975c.362.362.156 1.262-.456 2-.872 1.051-.654 1.342 1.009 1.342 1.455 0 2.122-.628 2.122-2 0-1.2-.667-2-1.667-2-.916 0-1.37.296-1.008.658m12.282.924c-.334.87-.578 3.232-.544 5.25.05 2.88.237 3.238.871 1.668 1.551-3.846 2.237-8.5 1.252-8.5-.534 0-1.245.712-1.579 1.582m-105.053.954c-1.669 1.261-1.742 1.649-.517 2.718.786.685 1.127.861.756.389-.37-.471-.15-1.416.489-2.099.924-.99 1.439-.966 2.52.115.748.748 1.885 1.028 2.529.624.793-.5.606-.848-.581-1.083-.963-.191-1.75-.764-1.75-1.273 0-1.31-1.186-1.101-3.446.609M145 104.861c0 .474 1.125.647 2.5.384s2.5-.651 2.5-.862c0-.21-1.125-.383-2.5-.383s-2.5.388-2.5.861M67.5 108c-.34.55-.141 1 .441 1S69 108.55 69 108s-.198-1-.441-1-.719.45-1.059 1m-16.74 9.038L48.019 121h3.162c1.739 0 3.962-.725 4.941-1.61 1.635-1.48 1.652-1.805.214-4-.861-1.315-1.852-2.373-2.201-2.352-.349.021-1.868 1.821-3.375 4m26.544-1.153c-.978 1.567-.797 2.243 1.074 4 2.085 1.959 6.622 2.959 6.622 1.459 0-1.011-5.01-7.344-5.81-7.344-.39 0-1.239.848-1.886 1.885m-20.552 4.37c-1.053 1.608-1.217 2.96-.569 4.71l.908 2.454 2.418-2.959c2.843-3.479 3.082-5.019.909-5.853-2.147-.824-2.004-.888-3.666 1.648m15.998-1.566c-2.303.602-2.234 1.006.975 5.636l2.726 3.933 1.16-2.839c.936-2.288.87-3.282-.34-5.129-.826-1.259-1.787-2.238-2.136-2.174-.349.064-1.422.322-2.385.573m68.25 5.276c0 4.11 8.486 5.549 12 2.035 3.294-3.294 2.412-4-5-4-6.292 0-7 .199-7 1.965m2.5.035c.34.55 2.14 1 4 1 1.86 0 3.66-.45 4-1 .378-.612-1.176-1-4-1s-4.378.388-4 1m-4.097 12.09c-.861 3.002-1.658 3.495-11.015 6.823-5.548 1.973-10.899 4.262-11.892 5.087-2.87 2.384-4.52 7.494-5.178 16.036l-.612 7.932 6.485 3.034c8.859 4.146 18.296 5.96 31.112 5.981 12.139.019 22.667-1.958 29.947-5.624l4.75-2.393-.045-9.233c-.069-14.105-.287-14.391-15.021-19.752-11.643-4.236-12.456-4.706-12.983-7.5-.377-2.001-1.037-2.831-2.007-2.524-2.12.671-8.128.454-10.528-.38-1.744-.605-2.236-.195-3.013 2.513M67 159.441c0 1.893.45 3.719 1 4.059.604.373 1-.99 1-3.441 0-2.232-.45-4.059-1-4.059s-1 1.548-1 3.441m61.5 43.767c-3.126 1.793-4.434 4.013-4.468 7.587-.063 6.462 7.37 10.413 12.642 6.721 8.215-5.755.49-19.277-8.174-14.308m-.943 4.015c-.856 1.222-1.557 2.922-1.557 3.777s.701 2.555 1.557 3.777c3.147 4.494 10.443 1.733 10.443-3.951 0-5.367-7.416-7.926-10.443-3.603" fill="#1976D2" fill-rule="evenodd"/></svg>